ply
format ascii 1.0
comment MT output
element vertex 394
property float x
property float y
property float z
element face 776
property list uchar int vertex_indices
end_header
-0.063198 0.036472 0.022814
-0.062419 0.036472 0.022328
-0.062885 0.036472 0.022664
-0.063039 0.036472 0.022851
-0.062419 0.036472 0.022328
-0.061641 0.036472 0.022644
-0.061961 0.036472 0.022348
-0.061823 0.036472 0.022072
-0.069279 0.155962 0.000363
-0.064213 0.163543 -0.021605
-0.074433 0.170349 -0.027467
-0.025345 0.174672 -0.020279
-0.010352 0.180583 -0.031507
-0.009050 0.165609 -0.019523
-0.049789 0.141688 0.012644
-0.044057 0.130115 0.004882
-0.050853 0.129134 -0.003872
-0.043557 0.124310 -0.011125
0.029227 0.107775 0.036615
0.015310 0.123184 0.033328
0.015418 0.111645 0.038521
0.034607 0.114554 0.024636
-0.001160 0.113175 0.042672
-0.001947 0.102226 0.044296
0.012394 0.097706 0.049470
0.015686 0.103392 0.046689
0.022184 0.078644 0.050940
-0.015889 0.094498 0.055334
-0.065433 0.110836 0.037239
-0.051096 0.115919 0.033321
-0.060042 0.124151 0.042841
-0.053069 0.089577 0.046402
-0.069982 0.097237 0.042089
-0.064933 0.080222 0.043775
-0.051852 0.056295 0.018968
-0.050912 0.063038 0.033517
-0.064946 0.064358 0.029188
-0.025064 0.082934 0.054318
-0.031685 0.084908 0.042264
0.030014 0.114043 -0.007903
0.032368 0.101918 -0.014236
0.014653 0.105297 -0.019935
0.031472 0.118929 0.006174
0.016076 0.128475 0.001627
0.057406 0.054370 0.023479
0.042878 0.048580 0.032773
0.052210 0.044957 0.018815
0.059978 0.054327 0.007756
0.049904 0.048384 -0.002320
0.058217 0.071421 0.021399
0.052335 0.063540 0.030286
-0.067878 0.117028 0.053833
-0.073206 0.129772 0.052754
-0.079633 0.111689 0.047083
-0.084810 0.128577 0.051129
0.041472 0.063213 0.029290
0.046885 0.072901 0.017509
-0.077516 0.074130 -0.006428
-0.081708 0.074216 0.002615
-0.087098 0.081743 0.014169
-0.065464 0.063991 -0.004208
-0.076464 0.089565 -0.014797
-0.062403 0.076455 -0.019214
-0.093511 0.121299 0.028426
-0.089792 0.136785 0.022536
-0.094055 0.129974 0.015419
-0.093375 0.115658 0.010578
-0.088799 0.143247 0.036097
-0.092392 0.150733 0.018257
-0.073377 0.167884 -0.044294
-0.079527 0.166921 -0.036285
-0.075907 0.179585 -0.053602
-0.071379 0.142109 -0.008176
-0.064040 0.142698 -0.007547
-0.073367 0.129246 -0.008927
-0.062270 0.147092 -0.003644
-0.057519 0.150992 -0.001287
-0.051456 0.143625 0.000206
-0.061721 0.165532 -0.047827
-0.061364 0.155267 -0.030893
-0.068495 0.153782 -0.052378
-0.060818 0.167615 -0.061287
-0.066112 0.171711 -0.043101
-0.074292 0.177463 -0.044827
-0.063474 0.180285 -0.059853
-0.066323 0.175769 -0.060212
-0.032927 0.178932 -0.009713
-0.016916 0.187483 -0.020387
-0.026954 0.180956 -0.006539
-0.046162 0.165343 0.005263
-0.049134 0.130325 0.030327
-0.056424 0.151576 0.033074
-0.062964 0.136658 0.036899
-0.055424 0.141017 0.029691
-0.067682 0.146917 0.041740
-0.077503 0.144162 0.045574
-0.078338 0.153885 0.030565
-0.061454 0.155443 0.005324
-0.050246 0.165163 -0.004076
-0.013630 0.161298 -0.009537
-0.034372 0.156838 -0.011580
-0.036586 0.163727 -0.014131
-0.044686 0.075646 0.042897
-0.038849 0.064038 0.041791
-0.082720 0.110665 0.000824
-0.086879 0.108995 0.014957
-0.086698 0.123914 -0.002925
-0.008307 0.122447 0.035956
-0.020299 0.109879 0.041047
-0.029089 0.119497 0.028706
0.031526 0.089045 0.043151
0.034036 0.075922 0.040463
-0.093745 0.119722 0.041986
-0.089524 0.112138 0.037496
-0.079442 0.088090 0.036682
-0.075887 0.107122 0.035462
-0.082246 0.109901 0.027629
0.019951 0.064134 -0.027951
0.002697 0.064666 -0.033472
0.009297 0.074235 -0.033142
0.007701 0.054687 -0.030383
-0.003998 0.100813 -0.023606
0.021014 0.091539 -0.024564
0.009908 0.091964 -0.031443
0.037850 0.085673 -0.016244
0.030942 0.075226 -0.020522
0.043281 0.090653 -0.005663
0.042842 0.078605 -0.005498
0.040733 0.105448 0.003181
0.045674 0.093940 0.007585
0.045831 0.070805 0.002724
-0.002405 0.084878 -0.037089
-0.059244 0.121775 -0.008547
-0.071744 0.114429 -0.008163
-0.044243 0.091160 -0.022491
-0.056146 0.095438 -0.022033
-0.060321 0.108213 -0.017612
-0.049725 0.108687 -0.018893
-0.065302 0.100263 -0.017038
0.007923 0.131141 0.022360
0.021127 0.126965 0.018024
-0.026568 0.088382 -0.036546
-0.013871 0.095111 -0.034128
-0.016013 0.084919 -0.039447
-0.027508 0.094940 -0.024596
-0.033543 0.085299 -0.025353
-0.031314 0.076480 -0.032912
-0.035849 0.076651 -0.019363
0.005361 0.114735 -0.019794
0.010553 0.121360 -0.013217
-0.055781 0.102881 0.042220
-0.045539 0.104602 0.041960
-0.038476 0.106185 0.039375
-0.037311 0.124443 0.025282
-0.043283 0.126569 0.019767
-0.027718 0.125487 0.014809
-0.027763 0.125383 0.004705
0.033039 0.038851 0.025565
0.012784 0.034860 0.029349
0.006569 0.039361 0.036903
0.007771 0.039219 0.030201
-0.004643 0.039633 0.039549
0.005849 0.035168 0.035865
0.002083 0.034221 0.018608
-0.089670 0.090286 0.020673
-0.082364 0.077867 0.025850
-0.073939 0.072431 0.033636
-0.083472 0.144885 0.002893
-0.088382 0.134953 0.003549
-0.089889 0.150436 0.011801
-0.076595 0.152043 -0.010277
-0.077299 0.147765 -0.004466
-0.026247 0.171013 -0.011309
-0.038437 0.161564 0.000337
-0.031063 0.159345 0.002161
-0.080238 0.155488 0.012769
-0.076816 0.153728 -0.001255
-0.024671 0.095446 0.045176
-0.031380 0.099259 0.044197
0.039701 0.091482 0.033259
0.044292 0.092002 0.024088
-0.086598 0.086157 0.000083
-0.084870 0.093892 -0.004323
-0.089371 0.100294 0.018798
-0.088789 0.098768 0.006956
-0.026301 0.064502 0.039331
-0.016166 0.064271 0.053077
-0.028269 0.055827 0.035861
-0.014738 0.062287 -0.036733
-0.022296 0.070714 -0.038527
-0.005633 0.047045 -0.030198
-0.011356 0.127543 0.027084
-0.007828 0.130800 0.016326
0.038075 0.039768 -0.000747
0.034606 0.035602 0.010503
-0.073765 0.149131 -0.035474
-0.071177 0.157132 -0.042324
-0.036018 0.151653 0.000415
-0.048616 0.143757 0.006093
-0.050575 0.150212 0.012485
-0.054820 0.155257 0.012318
-0.065294 0.153206 0.034582
-0.063016 0.156195 0.025328
-0.003819 0.111773 -0.020748
-0.014511 0.108012 -0.021725
-0.032741 0.109863 -0.019340
-0.020208 0.116275 -0.015584
-0.026964 0.105653 -0.022771
-0.018987 0.124322 -0.004140
-0.033696 0.120231 -0.010017
-0.006998 0.126509 -0.007624
-0.008147 0.120436 -0.012924
0.001657 0.131097 0.002659
0.004134 0.127195 -0.005780
-0.046009 0.041825 0.013280
-0.044076 0.043524 0.019162
-0.046142 0.034174 0.019118
-0.038869 0.037119 0.019529
0.016633 0.035177 0.042680
-0.005556 0.035599 0.038240
-0.011229 0.039331 0.038721
-0.013300 0.035349 0.040100
-0.049218 0.035150 0.046201
-0.045302 0.045281 0.042031
-0.057753 0.038037 0.047507
-0.049916 0.069377 -0.014495
-0.044850 0.067263 -0.015636
-0.077374 0.068479 0.017962
-0.069182 0.060605 0.011187
-0.057245 0.060395 -0.003071
-0.057255 0.057861 0.003933
-0.049294 0.049842 0.015665
-0.053910 0.047862 0.026308
-0.057022 0.048688 0.008592
-0.045005 0.052828 0.038524
-0.050209 0.050651 0.034725
0.010213 0.086863 0.055905
0.006976 0.077991 0.056241
0.011320 0.066346 0.054218
0.018076 0.063296 0.048897
-0.009580 0.081078 0.057732
-0.018182 0.079823 0.057066
-0.000743 0.068787 0.056529
-0.002928 0.073835 0.059444
-0.008812 0.062679 0.056213
-0.004648 0.057594 0.054105
-0.021102 0.051017 0.045245
-0.015685 0.048674 0.048186
-0.033062 0.042317 0.049860
-0.021927 0.045558 0.053343
-0.026370 0.049378 0.047624
-0.034569 0.050977 0.037734
-0.038601 0.043214 0.041347
-0.023403 0.036422 0.054422
-0.032263 0.035341 0.050386
-0.035486 0.034517 0.032783
-0.039327 0.034922 0.042620
-0.051396 0.034317 0.028320
-0.049791 0.032224 0.020465
-0.053686 0.033266 0.016001
-0.037877 0.034472 0.027081
-0.041765 0.034686 0.023690
-0.028806 0.034372 0.014558
-0.034121 0.033920 0.013889
-0.040778 0.041651 0.015347
-0.039413 0.033718 0.007851
-0.030646 0.034063 0.007059
-0.034605 0.034143 0.001788
-0.041582 0.033948 -0.002755
-0.026159 0.037765 0.014688
-0.029758 0.037502 0.010241
-0.051981 0.051824 -0.007531
-0.058047 0.046755 -0.003277
-0.064242 0.042096 0.027550
-0.057721 0.040967 0.019730
-0.061830 0.036760 0.022322
-0.065583 0.042704 0.011670
-0.068115 0.045026 0.005703
-0.027484 0.059718 -0.027737
-0.032227 0.051356 -0.010386
-0.033158 0.058769 -0.011401
-0.028483 0.049260 -0.023797
-0.041737 0.048181 -0.010849
-0.068423 0.040449 -0.002088
-0.066415 0.040504 -0.005847
-0.071762 0.034778 -0.001299
-0.070243 0.033566 0.005221
-0.063355 0.033748 -0.008823
0.005220 0.038266 -0.012967
0.005372 0.039276 -0.007369
-0.014933 0.038833 -0.016006
-0.000352 0.034253 -0.016864
-0.002059 0.038585 0.003974
-0.008846 0.038753 -0.003060
0.034942 0.061730 0.038929
0.033979 0.049225 0.031377
0.026680 0.060537 0.043980
0.021044 0.055914 0.048176
0.013610 0.055235 0.050572
0.024916 0.034225 0.010565
0.021219 0.034555 0.021480
0.015182 0.035921 0.020215
0.015063 0.041444 0.010736
0.029920 0.048209 0.035310
0.026176 0.039279 0.030413
0.019921 0.041218 0.043347
0.022022 0.049135 0.040538
0.010145 0.044463 0.044887
0.005910 0.049291 0.052056
0.000243 0.035960 0.046752
-0.004537 0.034472 0.044722
0.004247 0.057061 0.053851
-0.001196 0.052412 0.054490
-0.004197 0.045468 0.046795
-0.009977 0.043073 0.049633
-0.013070 0.036047 0.050625
-0.020493 0.034877 0.050305
-0.024301 0.035015 0.041118
-0.028903 0.034353 0.038421
-0.034060 0.036105 0.036393
-0.031794 0.037745 0.036474
-0.025697 0.038939 0.041302
-0.013386 0.039622 0.041668
-0.018854 0.037809 0.042176
0.029058 0.060693 -0.020244
0.038252 0.065534 -0.012454
0.057143 0.071307 0.004912
0.052074 0.061345 -0.003991
0.034196 0.052764 -0.007402
0.041673 0.051107 -0.007143
0.024531 0.041883 -0.006201
0.026102 0.048992 -0.020423
0.022647 0.045531 -0.018217
0.013114 0.048375 -0.026269
0.005246 0.043758 -0.024660
0.017329 0.035081 -0.014756
0.017993 0.041158 -0.022147
0.020885 0.035232 -0.000824
0.016805 0.034305 0.001980
0.012649 0.035370 0.011670
0.009858 0.033117 0.011083
0.009939 0.035181 0.003818
0.008830 0.040011 0.007534
0.006783 0.036385 0.009045
0.004258 0.034365 0.008090
-0.014798 0.043354 -0.027183
-0.021735 0.047895 -0.027970
-0.033657 0.042028 -0.030150
0.003026 0.036324 -0.024441
-0.012972 0.033788 -0.024896
0.012184 0.034697 -0.021209
0.010096 0.034633 -0.007456
0.010310 0.034228 -0.012891
0.000840 0.034628 0.005764
0.004621 0.034115 0.000752
-0.003390 0.038267 0.016678
-0.011096 0.038295 0.022850
-0.047403 0.034063 0.013345
-0.047498 0.037261 0.009983
-0.071647 0.040008 0.006831
-0.072494 0.035444 0.008151
-0.059717 0.045795 0.042780
-0.063035 0.046092 0.035781
-0.065262 0.034981 0.040817
-0.067278 0.036340 0.034414
-0.061759 0.034238 0.022874
-0.064303 0.035096 0.022896
-0.063025 0.035695 0.019086
-0.065223 0.034290 0.015267
-0.047787 0.033569 0.006115
-0.053240 0.033510 0.010140
-0.036895 0.038212 -0.011197
-0.038159 0.038052 -0.003448
-0.039768 0.036190 -0.004973
-0.035852 0.038150 0.001167
-0.036169 0.038268 -0.003910
-0.030559 0.038665 -0.017241
-0.029989 0.038113 0.029365
-0.027894 0.037866 0.022544
-0.021779 0.038131 0.011432
-0.032070 0.037970 0.005078
-0.039266 0.046010 -0.022318
-0.044644 0.039413 -0.021714
-0.043304 0.034987 -0.027389
-0.024313 0.033876 -0.028574
-0.035165 0.033804 -0.031249
-0.045105 0.045375 -0.011094
-0.054068 0.037939 -0.011354
-0.048565 0.033970 -0.013301
-0.045994 0.033637 -0.019675
-0.023298 0.034069 -0.020602
-0.033682 0.033800 -0.020556
-0.039810 0.034220 -0.013626
-0.046926 0.033470 -0.010107
3 0 1 2
3 3 0 2
3 4 5 6
3 7 4 6
3 7 5 4
3 3 1 0
3 5 7 6
3 1 3 2
3 8 9 10
3 11 12 13
3 14 15 16
3 16 15 17
3 18 19 20
3 18 21 19
3 20 19 22
3 20 22 23
3 24 25 23
3 26 25 24
3 27 24 23
3 18 20 25
3 23 25 20
3 28 29 30
3 31 32 33
3 34 35 36
3 35 33 36
3 37 27 38
3 39 40 41
3 42 39 43
3 44 45 46
3 47 44 46
3 48 47 46
3 49 44 47
3 49 50 44
3 44 50 45
3 51 52 53
3 52 54 53
3 51 53 28
3 30 52 51
3 30 51 28
3 50 49 55
3 55 49 56
3 57 58 59
3 60 58 57
3 61 62 57
3 57 62 60
3 63 64 65
3 63 65 66
3 64 67 68
3 69 70 71
3 72 73 74
3 9 8 75
3 76 75 8
3 75 76 77
3 75 16 73
3 73 16 74
3 77 16 75
3 78 9 79
3 9 75 79
3 79 75 73
3 79 80 78
3 79 73 80
3 78 80 81
3 82 9 78
3 71 70 83
3 10 82 83
3 10 9 82
3 70 10 83
3 84 81 85
3 85 81 80
3 71 84 85
3 85 69 71
3 84 71 83
3 82 84 83
3 82 78 84
3 84 78 81
3 12 86 87
3 13 12 87
3 11 86 12
3 88 87 86
3 89 88 86
3 29 90 30
3 91 92 93
3 93 90 14
3 91 93 14
3 30 93 92
3 90 93 30
3 30 92 52
3 94 95 52
3 92 94 52
3 94 92 91
3 54 95 67
3 95 54 52
3 67 96 68
3 96 67 95
3 97 89 98
3 97 98 76
3 89 86 98
3 86 11 98
3 8 97 76
3 99 77 100
3 101 100 77
3 101 77 76
3 98 101 76
3 98 11 101
3 101 13 100
3 100 13 99
3 11 13 101
3 102 31 33
3 103 102 35
3 38 102 103
3 102 33 35
3 104 105 66
3 66 106 104
3 22 107 108
3 108 107 109
3 22 19 107
3 23 22 108
3 18 25 110
3 111 110 26
3 110 25 26
3 53 112 113
3 53 54 112
3 112 54 67
3 67 64 112
3 113 112 63
3 112 64 63
3 114 115 116
3 115 113 116
3 114 32 115
3 28 115 32
3 115 28 53
3 115 53 113
3 113 63 116
3 116 63 66
3 116 66 105
3 117 118 119
3 118 117 120
3 121 122 123
3 122 119 123
3 41 122 121
3 41 40 122
3 40 124 122
3 119 125 117
3 122 124 125
3 122 125 119
3 126 127 124
3 127 125 124
3 40 126 124
3 40 128 126
3 128 40 39
3 42 128 39
3 21 129 128
3 42 21 128
3 129 56 130
3 129 130 127
3 128 129 126
3 126 129 127
3 123 119 131
3 131 119 118
3 16 132 74
3 16 17 132
3 104 133 61
3 74 132 133
3 106 133 104
3 106 74 133
3 134 62 135
3 132 136 133
3 17 136 132
3 136 17 137
3 133 136 138
3 136 137 138
3 138 137 135
3 138 135 62
3 138 62 61
3 133 138 61
3 139 19 140
3 19 139 107
3 19 21 140
3 140 21 42
3 139 140 43
3 43 140 42
3 141 142 143
3 121 123 142
3 142 123 131
3 142 131 143
3 121 142 144
3 144 141 145
3 144 142 141
3 141 146 145
3 147 145 146
3 134 144 145
3 145 147 134
3 39 148 149
3 43 39 149
3 39 41 148
3 150 151 29
3 102 152 151
3 150 29 28
3 150 28 32
3 151 150 31
3 151 31 102
3 31 150 32
3 153 15 154
3 151 153 29
3 152 153 151
3 109 153 152
3 14 154 15
3 90 154 14
3 29 153 154
3 90 29 154
3 155 156 15
3 153 155 15
3 109 155 153
3 17 15 156
3 46 45 157
3 158 159 160
3 160 159 161
3 159 158 162
3 163 158 160
3 164 165 114
3 164 59 165
3 165 59 58
3 33 166 36
3 166 33 32
3 165 166 114
3 166 32 114
3 65 167 168
3 64 167 65
3 68 167 64
3 169 167 68
3 168 167 106
3 167 74 106
3 66 168 106
3 66 65 168
3 10 70 170
3 69 170 70
3 171 72 74
3 167 171 74
3 99 13 172
3 13 87 172
3 88 173 172
3 88 172 87
3 88 89 173
3 99 172 173
3 174 99 173
3 175 176 169
3 68 175 169
3 68 96 175
3 175 8 176
3 175 97 8
3 8 10 176
3 170 176 10
3 176 170 171
3 176 171 167
3 176 167 169
3 177 178 38
3 177 108 178
3 108 109 178
3 178 109 152
3 178 152 102
3 102 38 178
3 27 177 38
3 27 23 177
3 23 108 177
3 21 18 179
3 18 110 179
3 110 111 179
3 55 179 111
3 180 179 55
3 180 55 56
3 129 180 56
3 21 179 180
3 21 180 129
3 61 181 182
3 104 61 182
3 181 61 57
3 57 59 181
3 164 181 59
3 183 105 184
3 164 183 181
3 114 183 164
3 114 116 183
3 116 105 183
3 105 104 184
3 184 104 182
3 181 183 184
3 181 184 182
3 185 186 37
3 185 38 187
3 38 103 187
3 37 38 185
3 143 188 189
3 131 188 143
3 131 118 188
3 118 120 188
3 188 120 190
3 141 189 146
3 141 143 189
3 191 192 155
3 191 139 192
3 109 191 155
3 107 191 109
3 107 139 191
3 155 192 156
3 193 46 194
3 46 157 194
3 46 193 48
3 73 72 195
3 171 195 72
3 195 170 196
3 195 171 170
3 69 196 170
3 69 85 196
3 196 80 195
3 80 73 195
3 80 196 85
3 77 197 198
3 14 16 198
3 77 198 16
3 99 197 77
3 99 174 197
3 199 200 91
3 199 91 14
3 199 14 198
3 197 199 198
3 174 199 197
3 174 173 199
3 173 89 199
3 199 89 200
3 89 97 200
3 201 202 96
3 97 202 200
3 202 97 175
3 96 202 175
3 95 201 96
3 94 201 95
3 201 91 202
3 91 200 202
3 91 201 94
3 148 41 203
3 203 121 204
3 203 41 121
3 137 205 135
3 206 207 205
3 206 204 207
3 204 121 207
3 207 121 144
3 205 207 134
3 135 205 134
3 207 144 134
3 156 208 209
3 209 208 206
3 206 205 209
3 137 209 205
3 209 137 17
3 209 17 156
3 210 211 208
3 211 149 148
3 148 203 211
3 211 203 204
3 206 211 204
3 211 206 208
3 156 210 208
3 212 213 210
3 149 211 213
3 213 211 210
3 212 210 156
3 192 212 156
3 192 139 212
3 212 43 213
3 43 149 213
3 139 43 212
3 214 215 216
3 215 217 216
3 158 218 162
3 161 159 219
3 219 159 162
3 162 218 219
3 220 161 219
3 220 219 221
3 222 223 224
3 225 134 226
3 147 226 134
3 62 225 60
3 134 225 62
3 36 227 228
3 34 36 228
3 36 166 227
3 166 165 227
3 227 58 228
3 60 228 58
3 227 165 58
3 225 229 60
3 34 228 230
3 229 230 60
3 230 228 60
3 34 231 232
3 34 230 231
3 231 230 233
3 234 35 235
3 234 235 223
3 35 34 235
3 235 34 232
3 103 35 234
3 24 236 237
3 236 24 27
3 26 24 237
3 26 238 239
3 26 237 238
3 111 26 239
3 236 240 237
3 240 27 241
3 236 27 240
3 241 27 37
3 186 240 241
3 186 241 37
3 242 243 186
3 243 240 186
3 242 237 243
3 237 240 243
3 237 242 238
3 238 242 244
3 186 245 244
3 242 186 244
3 186 246 247
3 245 186 247
3 186 185 246
3 185 187 246
3 248 249 250
3 249 246 250
3 247 246 249
3 248 251 252
3 248 250 251
3 250 246 251
3 246 187 251
3 251 187 103
3 251 103 234
3 252 251 223
3 251 234 223
3 222 252 223
3 253 248 254
3 249 248 253
3 255 256 257
3 254 248 256
3 248 252 256
3 252 222 256
3 256 222 257
3 258 257 259
3 260 261 217
3 262 255 260
3 255 257 260
3 261 260 258
3 260 257 258
3 261 258 216
3 217 261 216
3 263 264 265
3 263 217 264
3 262 260 263
3 260 217 263
3 264 217 215
3 264 215 214
3 264 214 265
3 266 262 263
3 266 263 265
3 266 265 267
3 267 265 268
3 269 262 270
3 270 262 266
3 230 271 272
3 272 233 230
3 230 229 271
3 229 225 271
3 226 271 225
3 273 274 275
3 273 232 274
3 232 231 274
3 274 231 233
3 276 233 277
3 274 233 276
3 233 272 277
3 147 146 278
3 146 189 278
3 279 280 281
3 147 280 226
3 280 147 278
3 280 278 281
3 226 282 271
3 226 280 282
3 280 279 282
3 279 281 282
3 283 277 284
3 272 284 277
3 285 277 283
3 286 285 287
3 284 285 283
3 284 287 285
3 288 289 290
3 288 290 291
3 289 292 293
3 289 293 290
3 55 294 295
3 45 295 157
3 50 295 45
3 295 50 55
3 111 294 55
3 294 111 296
3 111 239 296
3 296 239 297
3 297 239 298
3 299 194 300
3 218 158 300
3 301 300 158
3 302 299 300
3 300 301 302
3 295 303 304
3 294 303 295
3 303 294 296
3 303 218 304
3 218 303 305
3 304 218 300
3 194 304 300
3 194 157 304
3 157 295 304
3 305 306 307
3 303 306 305
3 303 296 306
3 306 296 297
3 307 306 298
3 306 297 298
3 307 298 308
3 305 307 309
3 219 310 221
3 218 309 310
3 305 309 218
3 218 310 219
3 308 311 312
3 298 311 308
3 298 239 311
3 239 238 311
3 238 244 311
3 311 245 312
3 245 311 244
3 312 245 247
3 309 313 314
3 309 307 313
3 313 307 308
3 313 308 312
3 313 247 314
3 313 312 247
3 314 247 249
3 314 249 253
3 315 253 316
3 254 316 253
3 316 254 256
3 316 256 255
3 310 316 221
3 309 315 316
3 310 309 316
3 309 314 315
3 315 314 253
3 221 316 317
3 317 316 318
3 318 316 255
3 318 255 319
3 319 320 318
3 321 317 318
3 320 321 318
3 322 221 323
3 221 322 220
3 221 317 323
3 321 322 323
3 321 323 317
3 117 125 324
3 325 324 125
3 125 127 325
3 325 127 130
3 326 327 130
3 56 326 130
3 56 49 326
3 326 47 327
3 326 49 47
3 327 47 48
3 328 329 330
3 324 325 328
3 329 328 130
3 328 325 130
3 130 327 329
3 327 48 329
3 329 48 193
3 330 329 193
3 117 331 120
3 117 324 331
3 330 332 331
3 324 328 331
3 328 330 331
3 120 333 334
3 120 334 190
3 120 331 333
3 331 332 333
3 332 335 336
3 334 333 336
3 332 336 333
3 337 299 338
3 337 335 332
3 337 332 330
3 193 337 330
3 193 194 337
3 194 299 337
3 338 299 302
3 302 301 339
3 301 158 339
3 339 163 340
3 339 158 163
3 341 302 342
3 342 302 339
3 338 302 341
3 342 343 344
3 343 340 344
3 342 339 343
3 339 340 343
3 340 163 344
3 342 344 341
3 188 345 346
3 188 190 345
3 334 345 190
3 346 345 347
3 281 346 347
3 278 346 281
3 189 346 278
3 189 188 346
3 345 348 349
3 345 334 348
3 348 336 350
3 334 336 348
3 336 335 350
3 349 348 350
3 350 291 349
3 351 288 352
3 352 338 351
3 352 288 291
3 350 352 291
3 350 335 352
3 337 352 335
3 337 338 352
3 351 289 288
3 344 353 354
3 354 353 292
3 344 163 353
3 354 292 289
3 351 354 289
3 351 338 354
3 338 341 354
3 341 344 354
3 355 160 356
3 161 356 160
3 161 220 356
3 220 322 356
3 292 355 356
3 292 356 293
3 353 355 292
3 353 163 355
3 160 355 163
3 216 258 357
3 357 258 259
3 358 214 357
3 214 216 357
3 265 214 358
3 276 359 360
3 276 277 359
3 359 277 285
3 360 359 285
3 286 360 285
3 223 361 224
3 361 223 235
3 361 235 362
3 362 235 232
3 362 232 273
3 257 222 363
3 222 224 363
3 224 361 363
3 363 362 364
3 364 362 273
3 361 362 363
3 365 363 366
3 257 363 365
3 366 363 364
3 364 273 366
3 275 365 366
3 273 275 366
3 367 360 368
3 368 365 367
3 286 368 360
3 259 257 368
3 368 257 365
3 367 365 275
3 367 275 274
3 274 276 367
3 367 276 360
3 265 369 268
3 265 358 369
3 358 357 370
3 357 259 370
3 358 370 369
3 370 259 368
3 369 370 286
3 286 370 368
3 371 372 373
3 372 267 373
3 373 267 268
3 374 372 375
3 375 372 371
3 376 375 371
3 290 375 376
3 293 375 290
3 374 267 372
3 356 377 378
3 356 322 377
3 377 322 321
3 321 320 377
3 377 320 319
3 377 319 255
3 262 378 377
3 377 255 262
3 378 262 269
3 379 380 374
3 379 374 375
3 293 379 375
3 293 356 379
3 356 378 379
3 379 269 380
3 379 378 269
3 380 269 270
3 380 270 266
3 380 266 267
3 374 380 267
3 282 381 382
3 282 281 381
3 381 347 382
3 347 383 382
3 381 281 347
3 347 384 385
3 347 385 383
3 347 345 384
3 345 349 384
3 386 387 284
3 284 387 287
3 272 386 284
3 271 386 272
3 282 386 271
3 386 282 382
3 387 388 287
3 386 388 387
3 388 382 389
3 382 388 386
3 382 383 389
3 385 389 383
3 390 391 349
3 291 390 349
3 290 390 291
3 290 376 390
3 390 376 391
3 391 389 385
3 384 391 385
3 349 391 384
3 392 393 389
3 391 392 389
3 376 392 391
3 376 371 392
3 373 392 371
3 392 268 393
3 373 268 392
3 268 369 393
3 393 369 286
3 393 286 287
3 388 393 287
3 389 393 388
